<svg xmlns="http://www.w3.org/2000/svg" xmlns:xlink="http://www.w3.org/1999/xlink" width="2000" zoomAndPan="magnify" viewBox="0 0 1500 599.999999" height="800" preserveAspectRatio="xMidYMid meet" version="1.0"><defs><g/><clipPath id="6f04d82aad"><path d="M 308.621094 52 L 1191.371094 52 L 1191.371094 344.335938 L 308.621094 344.335938 Z M 308.621094 52 " clip-rule="nonzero"/></clipPath></defs><g clip-path="url(#6f04d82aad)"><path fill="#ffffff" d="M 479.875 224.164062 L 308.890625 224.164062 L 311.050781 259.992188 L 360.617188 259.992188 C 409.472656 259.992188 441.082031 300.089844 455.433594 344.503906 L 494.253906 344.503906 L 528.019531 259.992188 L 971.996094 259.992188 L 1005.761719 344.503906 L 1045.269531 344.503906 C 1057.464844 303.667969 1090.519531 259.992188 1135.792969 259.992188 L 1189.65625 259.992188 L 1191.101562 224.164062 L 539.503906 224.164062 C 575.429688 141.078125 657.335938 85.230469 749.996094 85.230469 C 834.042969 85.230469 909.472656 131.066406 949.714844 201.980469 L 990.671875 201.980469 C 950.429688 118.160156 867.09375 59.460938 770.832031 52.984375 C 653.734375 44.394531 545.246094 114.578125 503.582031 224.167969 L 483.457031 275.746094 L 474.132812 298.664062 C 468.390625 288.628906 461.175781 279.328125 454.011719 271.453125 C 450.429688 267.15625 446.820312 263.574219 443.242188 259.992188 L 465.496094 259.992188 Z M 1025.859375 298.664062 L 1010.058594 259.992188 L 1057.464844 259.992188 C 1053.171875 263.574219 1049.5625 267.160156 1045.980469 271.453125 C 1038.792969 279.328125 1031.625 288.628906 1025.859375 298.664062 Z M 1025.859375 298.664062 " fill-opacity="1" fill-rule="evenodd"/></g><g fill="#ffffff" fill-opacity="1"><g transform="translate(304.641023, 469.066318)"><g><path d="M 65.46875 -22.03125 L 65.46875 0 L 5.1875 0 L 5.1875 -78.6875 L 30.6875 -78.6875 L 30.6875 -22.03125 Z M 65.46875 -22.03125 "/></g></g></g><g fill="#ffffff" fill-opacity="1"><g transform="translate(374.511572, 469.066318)"><g><path d="M 5.1875 -78.6875 L 30.6875 -78.6875 L 30.6875 -35.40625 C 30.6875 -30.789062 31.445312 -27.222656 32.96875 -24.703125 C 34.488281 -22.179688 36.664062 -20.921875 39.5 -20.921875 C 42.226562 -20.921875 44.328125 -22.179688 45.796875 -24.703125 C 47.265625 -27.222656 48 -30.789062 48 -35.40625 L 48 -78.6875 L 73.640625 -78.6875 L 73.640625 -35.40625 C 73.640625 -23.757812 70.648438 -14.734375 64.671875 -8.328125 C 58.691406 -1.929688 50.25 1.265625 39.34375 1.265625 C 28.425781 1.265625 20.003906 -1.929688 14.078125 -8.328125 C 8.148438 -14.734375 5.1875 -23.757812 5.1875 -35.40625 Z M 5.1875 -78.6875 "/></g></g></g><g fill="#ffffff" fill-opacity="1"><g transform="translate(453.194621, 469.066318)"><g><path d="M 91.75 0 L 66.09375 0 L 66.09375 -31.625 L 53.5 -8.5 L 43.4375 -8.5 L 30.6875 -31.625 L 30.6875 0 L 5.1875 0 L 5.1875 -78.6875 L 28.015625 -78.6875 L 48.46875 -37.609375 L 68.921875 -78.6875 L 91.75 -78.6875 Z M 91.75 0 "/></g></g></g><g fill="#ffffff" fill-opacity="1"><g transform="translate(549.974783, 469.066318)"><g><path d="M 30.6875 -78.6875 L 30.6875 0 L 5.1875 0 L 5.1875 -78.6875 Z M 30.6875 -78.6875 "/></g></g></g><g fill="#ffffff" fill-opacity="1"><g transform="translate(585.854252, 469.066318)"><g><path d="M 5.1875 0 L 5.1875 -78.84375 L 26.75 -78.84375 L 48 -42.328125 L 48 -78.6875 L 73.640625 -78.6875 L 73.640625 0 L 52.09375 -0.15625 L 30.6875 -36.515625 L 30.6875 0 Z M 5.1875 0 "/></g></g></g><g fill="#ffffff" fill-opacity="1"><g transform="translate(664.537278, 469.066318)"><g><path d="M 56.5 -11.484375 L 30.0625 -11.484375 L 25.8125 0 L 1.09375 0 L 30.53125 -78.6875 L 56.34375 -78.6875 L 85.453125 0 L 60.578125 0 Z M 49.5625 -30.375 L 43.4375 -51.9375 L 36.984375 -30.375 Z M 49.5625 -30.375 "/></g></g></g><g fill="#ffffff" fill-opacity="1"><g transform="translate(750.931287, 469.066318)"><g/></g></g><g fill="#ffffff" fill-opacity="1"><g transform="translate(772.175686, 469.066318)"><g><path d="M 61.6875 -40.75 C 71.125 -37.707031 75.84375 -31.519531 75.84375 -22.1875 C 75.84375 -15.15625 72.90625 -9.695312 67.03125 -5.8125 C 61.15625 -1.9375 52.765625 0 41.859375 0 L 5.1875 0 L 5.1875 -78.6875 L 46.109375 -78.6875 C 54.285156 -78.6875 60.578125 -76.769531 64.984375 -72.9375 C 69.390625 -69.101562 71.59375 -63.625 71.59375 -56.5 C 71.59375 -49.050781 68.289062 -43.800781 61.6875 -40.75 Z M 30.375 -48.9375 L 42.484375 -48.9375 C 46.367188 -48.9375 48.3125 -50.507812 48.3125 -53.65625 C 48.3125 -56.695312 46.367188 -58.484375 42.484375 -59.015625 L 30.375 -59.015625 Z M 44.0625 -19.671875 C 48.675781 -19.671875 50.984375 -21.503906 50.984375 -25.171875 C 50.984375 -28.953125 48.675781 -30.84375 44.0625 -30.84375 L 30.375 -30.84375 L 30.375 -19.671875 Z M 44.0625 -19.671875 "/></g></g></g><g fill="#ffffff" fill-opacity="1"><g transform="translate(852.432412, 469.066318)"><g><path d="M 64.671875 -33.984375 C 70.335938 -29.472656 73.171875 -22.445312 73.171875 -12.90625 L 73.171875 0 L 49.890625 0 L 49.890625 -16.203125 C 49.890625 -23.128906 46.632812 -27.171875 40.125 -28.328125 L 30.6875 -28.328125 L 30.6875 0 L 5.1875 0 L 5.1875 -78.6875 L 46.734375 -78.6875 C 55.335938 -78.6875 61.972656 -76.507812 66.640625 -72.15625 C 71.304688 -67.800781 73.640625 -61.582031 73.640625 -53.5 C 73.640625 -44.6875 70.648438 -38.179688 64.671875 -33.984375 Z M 43.28125 -47.203125 C 48.3125 -47.203125 50.828125 -49.144531 50.828125 -53.03125 C 50.828125 -57.019531 48.3125 -59.015625 43.28125 -59.015625 L 30.6875 -59.015625 L 30.6875 -47.203125 Z M 43.28125 -47.203125 "/></g></g></g><g fill="#ffffff" fill-opacity="1"><g transform="translate(930.328588, 469.066318)"><g><path d="M 30.6875 -78.6875 L 30.6875 0 L 5.1875 0 L 5.1875 -78.6875 Z M 30.6875 -78.6875 "/></g></g></g><g fill="#ffffff" fill-opacity="1"><g transform="translate(966.208102, 469.066318)"><g><path d="M 36.671875 -78.6875 C 48.523438 -78.6875 57.648438 -75.273438 64.046875 -68.453125 C 70.441406 -61.628906 73.640625 -51.925781 73.640625 -39.34375 C 73.640625 -26.75 70.441406 -17.039062 64.046875 -10.21875 C 57.648438 -3.40625 48.523438 0 36.671875 0 L 5.1875 0 L 5.1875 -78.6875 Z M 38.234375 -22.03125 C 41.492188 -22.03125 44.015625 -23.550781 45.796875 -26.59375 C 47.578125 -29.632812 48.46875 -33.882812 48.46875 -39.34375 C 48.46875 -44.90625 47.578125 -49.179688 45.796875 -52.171875 C 44.015625 -55.160156 41.492188 -56.65625 38.234375 -56.65625 L 30.6875 -56.65625 L 30.6875 -22.03125 Z M 38.234375 -22.03125 "/></g></g></g><g fill="#ffffff" fill-opacity="1"><g transform="translate(1043.789566, 469.066318)"><g><path d="M 75.375 0 L 64.046875 0 L 61.21875 -8.65625 C 55.132812 -2.039062 48.050781 1.265625 39.96875 1.265625 C 28.53125 1.265625 19.71875 -2.273438 13.53125 -9.359375 C 7.34375 -16.441406 4.25 -26.4375 4.25 -39.34375 C 4.25 -52.351562 7.34375 -62.367188 13.53125 -69.390625 C 19.71875 -76.421875 28.53125 -79.9375 39.96875 -79.9375 C 49.832031 -79.9375 57.753906 -77.363281 63.734375 -72.21875 C 69.710938 -67.082031 73.488281 -59.796875 75.0625 -50.359375 L 50.203125 -45.953125 C 48.941406 -53.921875 45.582031 -57.90625 40.125 -57.90625 C 36.664062 -57.90625 34.015625 -56.304688 32.171875 -53.109375 C 30.335938 -49.910156 29.421875 -45.320312 29.421875 -39.34375 C 29.421875 -33.46875 30.335938 -28.925781 32.171875 -25.71875 C 34.015625 -22.519531 36.664062 -20.921875 40.125 -20.921875 C 43.0625 -20.921875 45.316406 -23.179688 46.890625 -27.703125 L 39.65625 -27.703125 L 39.65625 -41.703125 L 75.84375 -41.703125 Z M 75.375 0 "/></g></g></g><g fill="#ffffff" fill-opacity="1"><g transform="translate(1124.675717, 469.066318)"><g><path d="M 30.6875 -59.015625 L 30.6875 -48.78125 L 65.46875 -48.78125 L 65.46875 -29.90625 L 30.6875 -29.90625 L 30.6875 -19.671875 L 65.46875 -19.671875 L 65.46875 0 L 5.1875 0 L 5.1875 -78.6875 L 65.46875 -78.6875 L 65.46875 -59.015625 Z M 30.6875 -59.015625 "/></g></g></g><g fill="#ffffff" fill-opacity="1"><g transform="translate(534.613813, 544.913781)"><g><path d="M 20.5 -29.546875 C 20.5 -29.378906 20.441406 -29.238281 20.328125 -29.125 C 20.210938 -29.007812 20.070312 -28.953125 19.90625 -28.953125 L 9.5 -28.953125 C 9.332031 -28.953125 9.25 -28.867188 9.25 -28.703125 L 9.25 -20.796875 C 9.25 -20.628906 9.332031 -20.546875 9.5 -20.546875 L 15.453125 -20.546875 C 15.617188 -20.546875 15.757812 -20.488281 15.875 -20.375 C 15.988281 -20.257812 16.046875 -20.117188 16.046875 -19.953125 L 16.046875 -15.09375 C 16.046875 -14.925781 15.988281 -14.785156 15.875 -14.671875 C 15.757812 -14.554688 15.617188 -14.5 15.453125 -14.5 L 9.5 -14.5 C 9.332031 -14.5 9.25 -14.414062 9.25 -14.25 L 9.25 -0.59375 C 9.25 -0.425781 9.191406 -0.285156 9.078125 -0.171875 C 8.960938 -0.0546875 8.820312 0 8.65625 0 L 2.796875 0 C 2.628906 0 2.488281 -0.0546875 2.375 -0.171875 C 2.257812 -0.285156 2.203125 -0.425781 2.203125 -0.59375 L 2.203125 -34.40625 C 2.203125 -34.570312 2.257812 -34.710938 2.375 -34.828125 C 2.488281 -34.941406 2.628906 -35 2.796875 -35 L 19.90625 -35 C 20.070312 -35 20.210938 -34.941406 20.328125 -34.828125 C 20.441406 -34.710938 20.5 -34.570312 20.5 -34.40625 Z M 20.5 -29.546875 "/></g></g></g><g fill="#ffffff" fill-opacity="1"><g transform="translate(578.360523, 544.913781)"><g><path d="M 11.796875 0.40625 C 8.734375 0.40625 6.285156 -0.492188 4.453125 -2.296875 C 2.617188 -4.097656 1.703125 -6.5 1.703125 -9.5 L 1.703125 -25.5 C 1.703125 -28.5 2.617188 -30.898438 4.453125 -32.703125 C 6.285156 -34.503906 8.734375 -35.40625 11.796875 -35.40625 C 14.867188 -35.40625 17.328125 -34.503906 19.171875 -32.703125 C 21.023438 -30.898438 21.953125 -28.5 21.953125 -25.5 L 21.953125 -9.5 C 21.953125 -6.5 21.023438 -4.097656 19.171875 -2.296875 C 17.328125 -0.492188 14.867188 0.40625 11.796875 0.40625 Z M 11.796875 -5.65625 C 12.734375 -5.65625 13.484375 -5.976562 14.046875 -6.625 C 14.617188 -7.269531 14.90625 -8.128906 14.90625 -9.203125 L 14.90625 -25.796875 C 14.90625 -26.867188 14.617188 -27.726562 14.046875 -28.375 C 13.484375 -29.019531 12.734375 -29.34375 11.796875 -29.34375 C 10.867188 -29.34375 10.128906 -29.019531 9.578125 -28.375 C 9.023438 -27.726562 8.75 -26.867188 8.75 -25.796875 L 8.75 -9.203125 C 8.75 -8.128906 9.023438 -7.269531 9.578125 -6.625 C 10.128906 -5.976562 10.867188 -5.65625 11.796875 -5.65625 Z M 11.796875 -5.65625 "/></g></g></g><g fill="#ffffff" fill-opacity="1"><g transform="translate(624.706839, 544.913781)"><g><path d="M 12 0.40625 C 9 0.40625 6.585938 -0.535156 4.765625 -2.421875 C 2.953125 -4.304688 2.046875 -6.816406 2.046875 -9.953125 L 2.046875 -34.40625 C 2.046875 -34.570312 2.101562 -34.710938 2.21875 -34.828125 C 2.34375 -34.941406 2.488281 -35 2.65625 -35 L 8.5 -35 C 8.664062 -35 8.804688 -34.941406 8.921875 -34.828125 C 9.035156 -34.710938 9.09375 -34.570312 9.09375 -34.40625 L 9.09375 -9.25 C 9.09375 -8.1875 9.359375 -7.320312 9.890625 -6.65625 C 10.429688 -5.988281 11.132812 -5.65625 12 -5.65625 C 12.863281 -5.65625 13.550781 -5.988281 14.0625 -6.65625 C 14.582031 -7.320312 14.84375 -8.1875 14.84375 -9.25 L 14.84375 -34.40625 C 14.84375 -34.570312 14.898438 -34.710938 15.015625 -34.828125 C 15.140625 -34.941406 15.285156 -35 15.453125 -35 L 21.296875 -35 C 21.460938 -35 21.601562 -34.941406 21.71875 -34.828125 C 21.84375 -34.710938 21.90625 -34.570312 21.90625 -34.40625 L 21.90625 -9.953125 C 21.90625 -6.816406 20.992188 -4.304688 19.171875 -2.421875 C 17.359375 -0.535156 14.96875 0.40625 12 0.40625 Z M 12 0.40625 "/></g></g></g><g fill="#ffffff" fill-opacity="1"><g transform="translate(671.353104, 544.913781)"><g><path d="M 16.5 -34.40625 C 16.5 -34.570312 16.554688 -34.710938 16.671875 -34.828125 C 16.785156 -34.941406 16.925781 -35 17.09375 -35 L 22.90625 -35 C 23.070312 -35 23.210938 -34.941406 23.328125 -34.828125 C 23.441406 -34.710938 23.5 -34.570312 23.5 -34.40625 L 23.5 -0.59375 C 23.5 -0.425781 23.441406 -0.285156 23.328125 -0.171875 C 23.210938 -0.0546875 23.070312 0 22.90625 0 L 16.296875 0 C 15.960938 0 15.75 -0.164062 15.65625 -0.5 L 9.453125 -19.84375 C 9.421875 -19.945312 9.363281 -19.988281 9.28125 -19.96875 C 9.195312 -19.957031 9.15625 -19.898438 9.15625 -19.796875 L 9.203125 -0.59375 C 9.203125 -0.425781 9.140625 -0.285156 9.015625 -0.171875 C 8.898438 -0.0546875 8.757812 0 8.59375 0 L 2.796875 0 C 2.628906 0 2.488281 -0.0546875 2.375 -0.171875 C 2.257812 -0.285156 2.203125 -0.425781 2.203125 -0.59375 L 2.203125 -34.40625 C 2.203125 -34.570312 2.257812 -34.710938 2.375 -34.828125 C 2.488281 -34.941406 2.628906 -35 2.796875 -35 L 9.34375 -35 C 9.675781 -35 9.894531 -34.832031 10 -34.5 L 16.25 -15.15625 C 16.28125 -15.050781 16.335938 -15.003906 16.421875 -15.015625 C 16.503906 -15.035156 16.546875 -15.097656 16.546875 -15.203125 Z M 16.5 -34.40625 "/></g></g></g><g fill="#ffffff" fill-opacity="1"><g transform="translate(719.749102, 544.913781)"><g><path d="M 2.796875 0 C 2.628906 0 2.488281 -0.0546875 2.375 -0.171875 C 2.257812 -0.285156 2.203125 -0.425781 2.203125 -0.59375 L 2.203125 -34.40625 C 2.203125 -34.570312 2.257812 -34.710938 2.375 -34.828125 C 2.488281 -34.941406 2.628906 -35 2.796875 -35 L 11.84375 -35 C 14.882812 -35 17.320312 -34.113281 19.15625 -32.34375 C 20.988281 -30.582031 21.90625 -28.234375 21.90625 -25.296875 L 21.90625 -9.703125 C 21.90625 -6.765625 20.988281 -4.410156 19.15625 -2.640625 C 17.320312 -0.878906 14.882812 0 11.84375 0 Z M 9.25 -6.296875 C 9.25 -6.128906 9.332031 -6.046875 9.5 -6.046875 L 11.75 -6.09375 C 12.644531 -6.132812 13.375 -6.519531 13.9375 -7.25 C 14.507812 -7.976562 14.8125 -8.945312 14.84375 -10.15625 L 14.84375 -24.84375 C 14.84375 -26.113281 14.5625 -27.113281 14 -27.84375 C 13.4375 -28.582031 12.671875 -28.953125 11.703125 -28.953125 L 9.5 -28.953125 C 9.332031 -28.953125 9.25 -28.867188 9.25 -28.703125 Z M 9.25 -6.296875 "/></g></g></g><g fill="#ffffff" fill-opacity="1"><g transform="translate(766.245381, 544.913781)"><g><path d="M 16.90625 0 C 16.5 0 16.28125 -0.179688 16.25 -0.546875 L 15.453125 -5.34375 C 15.453125 -5.507812 15.351562 -5.59375 15.15625 -5.59375 L 8.796875 -5.59375 C 8.597656 -5.59375 8.5 -5.507812 8.5 -5.34375 L 7.703125 -0.546875 C 7.671875 -0.179688 7.453125 0 7.046875 0 L 1.203125 0 C 0.765625 0 0.597656 -0.21875 0.703125 -0.65625 L 8.046875 -34.453125 C 8.117188 -34.816406 8.335938 -35 8.703125 -35 L 15.453125 -35 C 15.816406 -35 16.03125 -34.816406 16.09375 -34.453125 L 23.40625 -0.65625 L 23.453125 -0.453125 C 23.453125 -0.148438 23.269531 0 22.90625 0 Z M 9.5 -11.296875 C 9.5 -11.128906 9.566406 -11.046875 9.703125 -11.046875 L 14.203125 -11.046875 C 14.367188 -11.046875 14.4375 -11.128906 14.40625 -11.296875 L 12.046875 -24.953125 C 12.015625 -25.046875 11.960938 -25.09375 11.890625 -25.09375 C 11.828125 -25.09375 11.78125 -25.046875 11.75 -24.953125 Z M 9.5 -11.296875 "/></g></g></g><g fill="#ffffff" fill-opacity="1"><g transform="translate(813.041644, 544.913781)"><g><path d="M 21.59375 -35 C 21.757812 -35 21.898438 -34.941406 22.015625 -34.828125 C 22.140625 -34.710938 22.203125 -34.570312 22.203125 -34.40625 L 22.203125 -29.546875 C 22.203125 -29.378906 22.140625 -29.238281 22.015625 -29.125 C 21.898438 -29.007812 21.757812 -28.953125 21.59375 -28.953125 L 15.34375 -28.953125 C 15.175781 -28.953125 15.09375 -28.867188 15.09375 -28.703125 L 15.09375 -0.59375 C 15.09375 -0.425781 15.035156 -0.285156 14.921875 -0.171875 C 14.804688 -0.0546875 14.664062 0 14.5 0 L 8.65625 0 C 8.488281 0 8.34375 -0.0546875 8.21875 -0.171875 C 8.101562 -0.285156 8.046875 -0.425781 8.046875 -0.59375 L 8.046875 -28.703125 C 8.046875 -28.867188 7.960938 -28.953125 7.796875 -28.953125 L 1.796875 -28.953125 C 1.628906 -28.953125 1.488281 -29.007812 1.375 -29.125 C 1.257812 -29.238281 1.203125 -29.378906 1.203125 -29.546875 L 1.203125 -34.40625 C 1.203125 -34.570312 1.257812 -34.710938 1.375 -34.828125 C 1.488281 -34.941406 1.628906 -35 1.796875 -35 Z M 21.59375 -35 "/></g></g></g><g fill="#ffffff" fill-opacity="1"><g transform="translate(859.137986, 544.913781)"><g><path d="M 2.796875 0 C 2.628906 0 2.488281 -0.0546875 2.375 -0.171875 C 2.257812 -0.285156 2.203125 -0.425781 2.203125 -0.59375 L 2.203125 -34.40625 C 2.203125 -34.570312 2.257812 -34.710938 2.375 -34.828125 C 2.488281 -34.941406 2.628906 -35 2.796875 -35 L 8.65625 -35 C 8.820312 -35 8.960938 -34.941406 9.078125 -34.828125 C 9.191406 -34.710938 9.25 -34.570312 9.25 -34.40625 L 9.25 -0.59375 C 9.25 -0.425781 9.191406 -0.285156 9.078125 -0.171875 C 8.960938 -0.0546875 8.820312 0 8.65625 0 Z M 2.796875 0 "/></g></g></g><g fill="#ffffff" fill-opacity="1"><g transform="translate(893.33618, 544.913781)"><g><path d="M 11.796875 0.40625 C 8.734375 0.40625 6.285156 -0.492188 4.453125 -2.296875 C 2.617188 -4.097656 1.703125 -6.5 1.703125 -9.5 L 1.703125 -25.5 C 1.703125 -28.5 2.617188 -30.898438 4.453125 -32.703125 C 6.285156 -34.503906 8.734375 -35.40625 11.796875 -35.40625 C 14.867188 -35.40625 17.328125 -34.503906 19.171875 -32.703125 C 21.023438 -30.898438 21.953125 -28.5 21.953125 -25.5 L 21.953125 -9.5 C 21.953125 -6.5 21.023438 -4.097656 19.171875 -2.296875 C 17.328125 -0.492188 14.867188 0.40625 11.796875 0.40625 Z M 11.796875 -5.65625 C 12.734375 -5.65625 13.484375 -5.976562 14.046875 -6.625 C 14.617188 -7.269531 14.90625 -8.128906 14.90625 -9.203125 L 14.90625 -25.796875 C 14.90625 -26.867188 14.617188 -27.726562 14.046875 -28.375 C 13.484375 -29.019531 12.734375 -29.34375 11.796875 -29.34375 C 10.867188 -29.34375 10.128906 -29.019531 9.578125 -28.375 C 9.023438 -27.726562 8.75 -26.867188 8.75 -25.796875 L 8.75 -9.203125 C 8.75 -8.128906 9.023438 -7.269531 9.578125 -6.625 C 10.128906 -5.976562 10.867188 -5.65625 11.796875 -5.65625 Z M 11.796875 -5.65625 "/></g></g></g><g fill="#ffffff" fill-opacity="1"><g transform="translate(939.682507, 544.913781)"><g><path d="M 16.5 -34.40625 C 16.5 -34.570312 16.554688 -34.710938 16.671875 -34.828125 C 16.785156 -34.941406 16.925781 -35 17.09375 -35 L 22.90625 -35 C 23.070312 -35 23.210938 -34.941406 23.328125 -34.828125 C 23.441406 -34.710938 23.5 -34.570312 23.5 -34.40625 L 23.5 -0.59375 C 23.5 -0.425781 23.441406 -0.285156 23.328125 -0.171875 C 23.210938 -0.0546875 23.070312 0 22.90625 0 L 16.296875 0 C 15.960938 0 15.75 -0.164062 15.65625 -0.5 L 9.453125 -19.84375 C 9.421875 -19.945312 9.363281 -19.988281 9.28125 -19.96875 C 9.195312 -19.957031 9.15625 -19.898438 9.15625 -19.796875 L 9.203125 -0.59375 C 9.203125 -0.425781 9.140625 -0.285156 9.015625 -0.171875 C 8.898438 -0.0546875 8.757812 0 8.59375 0 L 2.796875 0 C 2.628906 0 2.488281 -0.0546875 2.375 -0.171875 C 2.257812 -0.285156 2.203125 -0.425781 2.203125 -0.59375 L 2.203125 -34.40625 C 2.203125 -34.570312 2.257812 -34.710938 2.375 -34.828125 C 2.488281 -34.941406 2.628906 -35 2.796875 -35 L 9.34375 -35 C 9.675781 -35 9.894531 -34.832031 10 -34.5 L 16.25 -15.15625 C 16.28125 -15.050781 16.335938 -15.003906 16.421875 -15.015625 C 16.503906 -15.035156 16.546875 -15.097656 16.546875 -15.203125 Z M 16.5 -34.40625 "/></g></g></g><path stroke-linecap="butt" transform="matrix(0.75, 0, 0, 0.75, 308.621414, 525.788782)" fill="none" stroke-linejoin="miter" d="M -0.000426976 2.000375 L 285.806877 2.000375 " stroke="#ffffff" stroke-width="4" stroke-opacity="1" stroke-miterlimit="4"/><path stroke-linecap="butt" transform="matrix(0.75, 0, 0, 0.75, 977.169871, 525.788782)" fill="none" stroke-linejoin="miter" d="M -0.00253641 2.000375 L 285.612059 2.000375 " stroke="#ffffff" stroke-width="4" stroke-opacity="1" stroke-miterlimit="4"/></svg>